<svg xmlns="http://www.w3.org/2000/svg" viewBox="0 0 512 512" role="img" aria-label="싱송">
  <rect width="512" height="512" rx="88" fill="#FAF7F0"/>
  <path d="M116 80h280v352H116z" fill="#FFF" stroke="#15131A" stroke-width="18"/>
  <path d="M116 320h280" fill="none" stroke="#817984" stroke-width="10" stroke-dasharray="18 16"/>
  <circle cx="116" cy="320" r="20" fill="#FAF7F0" stroke="#15131A" stroke-width="8"/>
  <circle cx="396" cy="320" r="20" fill="#FAF7F0" stroke="#15131A" stroke-width="8"/>
  <path d="M180 162c0-34 29-58 77-58 39 0 71 14 91 36l-36 39c-16-15-34-23-55-23-18 0-29 7-29 18 0 13 14 17 44 24 48 11 82 30 82 78 0 45-38 74-96 74-48 0-87-17-111-48l39-38c17 21 42 34 72 34 28 0 43-8 43-22 0-16-19-19-51-27-43-10-70-31-70-67Z" fill="#FF3D6E" stroke="#15131A" stroke-width="8" stroke-linejoin="round"/>
  <path d="M154 384h204" stroke="#B76E00" stroke-width="18"/>
</svg>
